<?xml version="1.0" encoding="utf-8"?>
<!-- Generator: Adobe Illustrator 24.0.1, SVG Export Plug-In . SVG Version: 6.00 Build 0)  -->
<svg version="1.1" id="Слой_1" xmlns="http://www.w3.org/2000/svg" xmlns:xlink="http://www.w3.org/1999/xlink" x="0px" y="0px"
	 viewBox="0 0 1000 1000" style="enable-background:new 0 0 1000 1000;" xml:space="preserve">
<path d="M86.62,563.23c6.28,1.35,11.5-0.17,14.92-5.73c2.83-4.6,2.64-9.42-0.44-13.84c-3.5-5.04-8.54-6.28-14.6-4.96
	c0-0.87,0-1.64,0-2.41c0-14.28,0-28.56,0-42.84c0-13.97,11.72-26.36,25.7-27.16c1.75-0.1,3.51-0.1,5.27-0.1
	c205.64,0,411.28,0.02,616.92-0.09c8.82,0,15.46,2.66,18.34,12.88c3.45,0,7.02-0.08,10.59,0.02c2.84,0.08,4.43,1.61,4.81,4.37
	c0.11,0.79,0.09,1.61,0.09,2.41c0,26.95,0,53.89,0,80.84c0,5.3-1.63,6.92-6.93,6.92c-2.84,0-5.67,0-8.62,0c0,0.93,0,1.63,0,2.62
	c3.01,0,5.98,0,8.96,0c4.78,0.01,6.59,1.84,6.59,6.68c0,12.59,0.01,25.19,0,37.78c0,4.63-1.88,6.49-6.55,6.5
	c-1.1,0-2.2,0.06-3.29-0.01c-3.8-0.23-7.03-0.29-9.22,4.19c-1.84,3.76-6.05,5.33-10.4,5.57c-0.8,0.04-1.61,0.04-2.41,0.04
	c-206.88,0-413.77,0-620.65,0c-13.49,0-24.23-7.53-28.04-19.73c-0.62-2-1.1-4.15-1.11-6.23c-0.09-15.38-0.05-30.75-0.05-46.13
	C86.5,564.32,86.58,563.82,86.62,563.23z M91.15,582.52c-0.05,0.27-0.14,0.55-0.14,0.83c-0.01,8.64-0.06,17.28,0.03,25.92
	c0.04,3.86,1.01,7.55,2.99,10.89c4.97,8.39,12.47,12.11,22.12,12.11c191.37-0.02,382.74-0.02,574.1-0.02
	c15.45,0,30.89,0.06,46.34-0.07c2.18-0.02,4.56-0.56,6.47-1.58c3.73-1.98,4.84-5.59,4.84-9.66c-0.02-46.21-0.01-92.41-0.01-138.62
	c0-0.8,0-1.62-0.11-2.41c-0.56-4.35-2.94-7.3-7.1-8.59c-1.57-0.48-3.32-0.48-5-0.48c-206.38-0.02-412.75-0.02-619.13-0.02
	c-0.73,0-1.46-0.01-2.2,0.01c-12.37,0.35-22.21,9.16-23.1,21.49c-0.6,8.31-0.21,16.68-0.26,25.03c-0.01,1.08,0,2.17,0,3.22
	c19.18,2.34,28.34,17.71,28.56,30.43C119.79,564.57,110.13,580.25,91.15,582.52z M752.67,481.27c0,30.01,0,59.77,0,89.72
	c3.7,0,7.27,0.12,10.83-0.1c0.73-0.05,1.68-1.25,2-2.12c0.35-0.96,0.08-2.14,0.08-3.13c-0.3-0.16-0.43-0.29-0.55-0.29
	c-2.93-0.03-5.85-0.08-8.78-0.06c-1.73,0.01-3.09-0.5-3.36-2.37c-0.21-1.44,1.34-2.56,3.39-2.57c3.05-0.02,6.11,0,9.2,0
	c0-1.23,0-2.22,0-3.44c-2.43,0-4.75,0.01-7.08,0c-2.65-0.02-3.9-0.83-3.77-2.53c0.18-2.34,1.9-2.42,3.68-2.4
	c2.39,0.03,4.78,0.01,7.13,0.01c0-1.37,0-2.43,0-3.66c-3.28,0-6.42,0-9.55,0c-1.72,0-2.97-0.85-2.97-2.54c0-1.56,1.22-2.44,2.8-2.53
	c1.31-0.08,2.63-0.03,3.95-0.04c1.95,0,3.9,0,5.8,0c0-1.16,0-2.02,0-3.06c-2.59,0-5.06,0.02-7.53,0c-2.28-0.02-3.45-0.88-3.31-2.54
	c0.17-1.98,1.57-2.4,3.27-2.38c2.53,0.02,5.06,0.01,7.55,0.01c0-1.41,0-2.47,0-3.74c-3.34,0-6.55,0-9.76,0
	c-1.67,0-2.79-0.92-2.77-2.47c0.02-1.53,1.15-2.46,2.8-2.49c0.73-0.01,1.46-0.01,2.2-0.01c2.53,0,5.06,0,7.5,0c0-1.39,0-2.44,0-3.59
	c-2.8,0-5.43,0.04-8.06-0.01c-1.59-0.03-2.72-0.79-2.72-2.5c0-1.56,0.9-2.36,2.52-2.34c2.75,0.03,5.5,0.01,8.32,0.01
	c0-1.52,0-2.57,0-3.84c-2.58,0-5.05,0-7.52,0c-0.73,0-1.46-0.02-2.2,0c-1.69,0.04-2.8-0.92-2.83-2.43
	c-0.04-1.52,1.04-2.49,2.74-2.48c3.27,0.02,6.54,0.01,9.8,0.01c0-1.4,0-2.47,0-3.77c-2.67,0-5.21,0.01-7.76,0
	c-1.71-0.01-3.17-0.5-3.07-2.54c0.09-1.97,1.53-2.44,3.25-2.43c2.53,0.02,5.07,0.01,7.54,0.01c0-1.36,0-2.41,0-3.59
	c-3.08,0-6,0.01-8.92,0c-2.26-0.01-3.84-1.08-3.62-2.58c0.28-1.96,1.72-2.5,3.54-2.47c2.98,0.05,5.96,0.01,8.98,0.01
	c0-1.35,0-2.46,0-3.65c-2.66,0-5.15-0.02-7.63,0.01c-1.75,0.02-3.17-0.49-3.13-2.49c0.04-1.96,1.46-2.46,3.19-2.44
	c2.51,0.02,5.03,0.01,7.54,0.01c0.08-0.26,0.15-0.52,0.23-0.78c-0.87-0.44-1.72-1.23-2.6-1.27
	C759.65,481.18,756.28,481.27,752.67,481.27z M91,577.61c8.77-1.07,15.49-5.03,19.87-12.37c5.55-9.29,5.42-18.82-0.37-27.97
	c-4.43-6.99-11.01-10.77-19.31-11.74c0,2.8,0,5.31,0,7.82c0.48,0.07,0.77,0.12,1.05,0.15c10.89,1.1,18.07,11.39,15.31,21.95
	c-1.8,6.89-7.57,11.85-14.8,12.89c-0.64,0.09-1.64,0.84-1.68,1.34C90.91,572.21,91,574.77,91,577.61z M765.48,610.48
	c-2.93,0-5.76,0.1-8.57-0.03c-1.92-0.09-3.03-1.92-1.98-3.32c0.59-0.79,1.87-1.38,2.89-1.46c2.52-0.21,5.07-0.07,7.64-0.07
	c0-1,0-1.76,0-2.63c-0.62-0.03-1.12-0.08-1.62-0.08c-2.71-0.01-5.41,0.01-8.12-0.02c-1.63-0.02-2.78-0.94-2.8-2.49
	c-0.03-1.56,1.12-2.46,2.75-2.53c0.73-0.03,1.46-0.02,2.19-0.02c2.53,0,5.06,0,7.6,0c0-1.09,0-1.85,0-2.79c-2.74,0-5.36-0.01-7.98,0
	c-1.5,0.01-2.66-0.56-2.83-2.13c-0.2-1.78,0.74-2.75,2.57-2.75c2.75,0,5.5,0,8.23,0c0-1.24,0-2.08,0-3.1c-2.6,0-5.07,0-7.54,0
	c-0.73,0-1.46,0.01-2.19-0.01c-1.63-0.05-2.78-0.95-2.8-2.49c-0.02-1.56,1.13-2.5,2.75-2.52c3.27-0.03,6.54-0.01,9.77-0.01
	c0.33-1.86-0.26-3.1-1.83-3.17c-3.62-0.16-7.25-0.05-11-0.05c0,15.36,0,30.46,0,45.67c2.83,0,5.53,0,8.23,0
	c4.64,0,4.93-0.3,4.73-5.01c-0.01-0.28-0.08-0.56-0.16-1.07c-3.08,0-6.13-0.04-9.19,0.02c-1.77,0.03-3.07-0.54-3.35-2.39
	c-0.21-1.41,1.36-2.54,3.4-2.55c3.05-0.02,6.1,0,9.2,0C765.48,612.45,765.48,611.68,765.48,610.48z"/>
<path d="M436.77,496.91c85.57,0,171.15,0,256.72,0.02c2.18,0,4.43-0.05,6.54,0.39c7.96,1.67,13.49,8.33,13.53,16.7
	c0.11,24.24,0.14,48.47-0.01,72.71c-0.06,9.44-7.01,16.37-16.42,17.04c-0.87,0.06-1.76,0.06-2.63,0.06
	c-171.66,0-343.32,0-514.98,0.03c-6.73,0-12.38-1.93-16.34-7.64c-1.92-2.78-2.95-5.87-2.95-9.27c0-24.38-0.05-48.77,0.02-73.15
	c0.02-9.15,7.14-16.4,16.29-16.86c1.1-0.06,2.2-0.04,3.29-0.04C265.47,496.91,351.12,496.91,436.77,496.91z M436.57,599.01
	c86.24,0,172.48,0,258.72,0c8.43,0,13.58-5.1,13.59-13.49c0.01-23.43,0.01-46.87,0-70.3c0-8.36-5.2-13.63-13.5-13.63
	c-172.33-0.01-344.67-0.01-517,0c-8.28,0-13.43,5.15-13.43,13.45c-0.02,23.51-0.02,47.01,0,70.52c0.01,8.47,5.07,13.46,13.57,13.46
	C264.53,599.01,350.55,599.01,436.57,599.01z"/>
<path d="M418.88,526.11c2.3,0,4.41,0,6.59,0c4.19,11.48,8.36,22.91,12.68,34.77c1.74-4.76,3.39-9.11,4.9-13.52
	c0.22-0.65-0.15-1.56-0.41-2.29c-2.24-6.23-4.52-12.45-6.87-18.88c2.4,0,4.54,0,6.83,0c1.29,3.46,2.6,7,4.13,11.12
	c1.24-3.38,2.42-6.21,3.31-9.13c0.52-1.7,1.31-2.38,3.09-2.17c1.43,0.17,2.9,0.03,4.62,0.03c-2.22,6.11-4.29,12.02-6.53,17.87
	c-0.77,2.01-0.94,3.77-0.06,5.83c1.49,3.48,2.67,7.09,4.13,11.04c0.6-1.58,1.09-2.82,1.55-4.07c3.49-9.6,6.99-19.2,10.41-28.83
	c0.49-1.39,1.11-2.02,2.63-1.87c1.52,0.14,3.06,0.03,4.99,0.03c-5.22,14.34-10.37,28.47-15.54,42.67c-2.38,0-4.65,0.13-6.89-0.08
	c-0.65-0.06-1.5-0.96-1.78-1.67c-1.32-3.3-2.48-6.67-3.9-10.58c-1.45,3.91-2.77,7.28-3.94,10.69c-0.42,1.22-0.97,1.76-2.32,1.66
	c-2.04-0.15-4.56,0.61-5.99-0.35c-1.39-0.93-1.72-3.51-2.42-5.41c-4.37-11.92-8.71-23.85-13.06-35.78
	C418.94,526.94,418.95,526.64,418.88,526.11z"/>
<path d="M361.91,568.71c0-14.28,0-28.31,0-42.47c0.47-0.07,0.96-0.2,1.44-0.19c6.28,0.12,12.65-0.37,18.81,0.53
	c10.75,1.55,18.01,11.95,17.06,23.28c-0.84,10.08-10.24,18.7-20.62,18.84C373.12,568.77,367.64,568.71,361.91,568.71z
	 M368.31,562.26c3.77,0,7.41,0.2,11.03-0.04c7.02-0.46,12.62-6.04,13.48-13.11c0.84-6.92-3.38-14.16-10.13-15.78
	c-4.58-1.1-9.49-0.82-14.37-1.17C368.31,542.55,368.31,552.32,368.31,562.26z"/>
<path d="M526.75,568.72c-2.26,0-4.54,0.12-6.79-0.05c-0.98-0.07-2.14-0.51-2.83-1.17c-4.74-4.58-9.37-9.26-14.04-13.9
	c-0.5-0.5-1.04-0.97-2.06-1.9c-0.96,5.92-0.05,11.41-0.59,16.92c-2.06,0-4.02,0-6.15,0c0-14.05,0-28.13,0-42.39
	c1.91,0,3.92,0,6.25,0c0,5.57,0,11.2,0,17.38c1.01-0.93,1.6-1.43,2.14-1.97c4.72-4.7,9.46-9.38,14.12-14.14
	c1.07-1.09,2.14-1.56,3.65-1.47c2.1,0.12,4.22,0.03,6.22,0.03c-6.94,6.96-13.87,13.91-20.95,21c7.38,7.34,14.34,14.27,21.31,21.21
	C526.94,568.4,526.85,568.56,526.75,568.72z"/>
<path d="M301.02,557.2c0.42,1.05,0.67,1.89,1.07,2.65c1.1,2.09,3.22,3.28,5.41,2.99c2.46-0.32,4.21-1.67,5.06-4
	c0.81-2.2,0.16-4.73-1.93-6.04c-2.56-1.61-5.31-2.95-8.08-4.16c-6.43-2.81-9.15-8.76-6.77-15.16c2.23-5.99,9.07-9.35,15.22-7.47
	c4.31,1.32,7.71,5.4,8.22,10.01c-1.93,0.5-3.88,1-5.97,1.54c-0.22-0.65-0.39-1.19-0.58-1.72c-0.97-2.63-2.92-4.03-5.46-3.93
	c-2.39,0.09-4.79,1.91-5.43,4.11c-0.71,2.42,0.04,4.91,2.38,6.3c2.56,1.52,5.33,2.71,8.03,3.98c5.57,2.62,8.03,7.17,6.94,12.93
	c-1,5.3-5.7,9.59-10.87,9.92c-6.16,0.4-11.01-2.81-12.87-8.4c-0.48-1.44-0.3-2.16,1.31-2.43
	C298.13,558.09,299.51,557.61,301.02,557.2z"/>
<path d="M334.41,557.19c0.29,0.83,0.49,1.52,0.78,2.17c1.03,2.34,3.2,3.69,5.56,3.5c2.31-0.18,4.57-1.96,5.22-4.11
	c0.71-2.35,0.03-4.8-2.23-6.14c-2.91-1.72-5.99-3.21-9.1-4.55c-5.89-2.55-6.74-8.3-5.98-12.78c0.87-5.13,5.81-9.42,10.83-9.69
	c6.89-0.37,11.98,3.58,13.16,10.41c-1.92,0.5-3.86,1.01-5.99,1.57c-0.23-0.64-0.44-1.23-0.66-1.82c-0.95-2.49-2.91-3.91-5.31-3.85
	c-2.38,0.05-4.84,1.84-5.52,4.01c-0.76,2.4-0.06,4.95,2.26,6.34c2.61,1.57,5.45,2.78,8.22,4.09c5.51,2.6,7.97,7.26,6.82,12.98
	c-1.09,5.42-5.87,9.64-11.16,9.85c-6.14,0.25-11.03-3.11-12.64-8.72c-0.14-0.47-0.14-0.98-0.22-1.64
	C330.48,558.27,332.41,557.74,334.41,557.19z"/>
<path d="M484.8,568.61c-2.07,0-4.01,0-6.07,0c0-14.18,0-28.25,0-42.44c2.03,0,3.97,0,6.07,0C484.8,540.25,484.8,554.32,484.8,568.61
	z"/>
<path d="M531.91,568.56c0-14.16,0-28.22,0-42.41c2.05,0,3.99,0,6.08,0c0,14.12,0,28.18,0,42.41
	C536,568.56,534.01,568.56,531.91,568.56z"/>
</svg>
